<?xml version="1.0" standalone="no"?>
<!DOCTYPE svg PUBLIC "-//W3C//DTD SVG 20010904//EN"
 "http://www.w3.org/TR/2001/REC-SVG-20010904/DTD/svg10.dtd">
<svg version="1.0" xmlns="http://www.w3.org/2000/svg"
 width="400.000000pt" height="400.000000pt" viewBox="0 0 400.000000 400.000000"
 preserveAspectRatio="xMidYMid meet">
<metadata>
Created by potrace 1.14, written by Peter Selinger 2001-2017
</metadata>
<g transform="translate(0.000000,400.000000) scale(0.100000,-0.100000)"
fill="#000000" stroke="none">
<path d="M1771 3729 c-243 -45 -473 -156 -635 -307 -196 -183 -296 -335 -376
-573 -117 -351 -68 -774 126 -1087 27 -42 67 -100 91 -129 24 -29 43 -57 43
-61 0 -5 -24 -26 -54 -46 -71 -49 -142 -125 -166 -179 -11 -24 -20 -65 -20
-97 l-1 -55 -60 -40 c-77 -51 -162 -143 -197 -214 -23 -48 -27 -69 -27 -141 0
-74 4 -93 29 -144 31 -63 124 -163 201 -216 91 -63 269 -144 410 -186 657
-200 1501 -151 2035 116 280 140 402 329 342 526 -33 105 -104 185 -268 298
-15 11 -23 29 -27 69 -10 97 -73 187 -182 263 -30 20 -55 42 -55 47 0 6 15 28
33 51 89 109 163 242 211 376 96 266 101 575 14 850 -35 111 -120 278 -188
370 -61 83 -216 233 -300 292 -283 199 -644 279 -979 217z m350 -133 c312 -22
611 -192 820 -469 95 -125 178 -318 210 -487 15 -82 16 -304 0 -393 -31 -182
-131 -395 -252 -540 -126 -151 -217 -225 -373 -304 -269 -136 -591 -162 -866
-72 -318 105 -549 297 -694 579 -158 306 -175 657 -46 970 59 143 130 250 244
368 143 148 293 242 476 300 118 37 295 63 380 55 14 -1 59 -4 101 -7z"/>
<path d="M2358 3396 c-42 -18 -96 -75 -109 -114 -63 -190 135 -483 379 -564
133 -44 255 -13 301 75 116 227 -195 620 -487 616 -32 0 -69 -6 -84 -13z"/>
<path d="M1172 2750 c-217 -46 -341 -244 -305 -488 32 -211 136 -404 322 -595
197 -202 428 -320 651 -334 149 -9 255 25 340 109 146 146 150 398 10 683
-128 258 -418 508 -697 601 -87 28 -244 40 -321 24z"/>
</g>
</svg>
